<?xml version="1.0" encoding="us-ascii" standalone="no"?><svg xmlns="http://www.w3.org/2000/svg" xmlns:xlink="http://www.w3.org/1999/xlink" contentStyleType="text/css" height="788px" preserveAspectRatio="none" style="width:679px;height:788px;background:#FFFFFF;" version="1.1" viewBox="0 0 679 788" width="679px" zoomAndPan="magnify"><defs/><g><rect fill="#FFFFFF" height="84.3984" style="stroke:#181818;stroke-width:1.0;" width="10" x="176.5" y="155.5625"/><rect fill="#FFFFFF" height="375.2656" style="stroke:#181818;stroke-width:1.0;" width="10" x="304" y="300.2266"/><rect fill="#FFFFFF" height="217.7969" style="stroke:#181818;stroke-width:1.0;" width="10" x="455.5" y="353.4922"/><rect fill="none" height="77.3984" style="stroke:#000000;stroke-width:1.5;" width="225" x="20" y="170.5625"/><rect fill="none" height="428.5313" style="stroke:#000000;stroke-width:1.5;" width="652" x="10" y="261.9609"/><rect fill="none" height="264.0625" style="stroke:#000000;stroke-width:1.5;" width="417" x="235" y="315.2266"/><rect fill="none" height="174.6641" style="stroke:#000000;stroke-width:1.5;" width="279" x="363" y="368.4922"/><rect fill="none" height="101.3984" style="stroke:#000000;stroke-width:1.5;" width="259" x="373" y="434.7578"/><rect fill="none" height="90.2031" style="stroke:#000000;stroke-width:1.5;" width="363" x="20" y="593.2891"/><line style="stroke:#181818;stroke-width:0.5;stroke-dasharray:5.0,5.0;" x1="53" x2="53" y1="81.2969" y2="707.4922"/><line style="stroke:#181818;stroke-width:0.5;stroke-dasharray:5.0,5.0;" x1="181" x2="181" y1="81.2969" y2="707.4922"/><line style="stroke:#181818;stroke-width:0.5;stroke-dasharray:5.0,5.0;" x1="309" x2="309" y1="81.2969" y2="707.4922"/><line style="stroke:#181818;stroke-width:0.5;stroke-dasharray:5.0,5.0;" x1="460" x2="460" y1="81.2969" y2="707.4922"/><text fill="#000000" font-family="sans-serif" font-size="14" lengthAdjust="spacing" textLength="41" x="30" y="77.9951">Player</text><ellipse cx="53.5" cy="13.5" fill="#E2E2F0" rx="8" ry="8" style="stroke:#181818;stroke-width:0.5;"/><path d="M53.5,21.5 L53.5,48.5 M40.5,29.5 L66.5,29.5 M53.5,48.5 L40.5,63.5 M53.5,48.5 L66.5,63.5 " fill="none" style="stroke:#181818;stroke-width:0.5;"/><text fill="#000000" font-family="sans-serif" font-size="14" lengthAdjust="spacing" textLength="41" x="30" y="719.4873">Player</text><ellipse cx="53.5" cy="731.2891" fill="#E2E2F0" rx="8" ry="8" style="stroke:#181818;stroke-width:0.5;"/><path d="M53.5,739.2891 L53.5,766.2891 M40.5,747.2891 L66.5,747.2891 M53.5,766.2891 L40.5,781.2891 M53.5,766.2891 L66.5,781.2891 " fill="none" style="stroke:#181818;stroke-width:0.5;"/><rect fill="#E2E2F0" height="30.2969" rx="2.5" ry="2.5" style="stroke:#181818;stroke-width:0.5;" width="107" x="128" y="50"/><text fill="#000000" font-family="sans-serif" font-size="14" lengthAdjust="spacing" textLength="93" x="135" y="69.9951">isTermination</text><rect fill="#E2E2F0" height="30.2969" rx="2.5" ry="2.5" style="stroke:#181818;stroke-width:0.5;" width="107" x="128" y="706.4922"/><text fill="#000000" font-family="sans-serif" font-size="14" lengthAdjust="spacing" textLength="93" x="135" y="726.4873">isTermination</text><rect fill="#E2E2F0" height="30.2969" rx="2.5" ry="2.5" style="stroke:#181818;stroke-width:0.5;" width="128" x="245" y="50"/><text fill="#000000" font-family="sans-serif" font-size="14" lengthAdjust="spacing" textLength="114" x="252" y="69.9951">computeReward</text><rect fill="#E2E2F0" height="30.2969" rx="2.5" ry="2.5" style="stroke:#181818;stroke-width:0.5;" width="128" x="245" y="706.4922"/><text fill="#000000" font-family="sans-serif" font-size="14" lengthAdjust="spacing" textLength="114" x="252" y="726.4873">computeReward</text><rect fill="#E2E2F0" height="30.2969" rx="2.5" ry="2.5" style="stroke:#181818;stroke-width:0.5;" width="155" x="383" y="50"/><text fill="#000000" font-family="sans-serif" font-size="14" lengthAdjust="spacing" textLength="141" x="390" y="69.9951">calculateReachColor</text><rect fill="#E2E2F0" height="30.2969" rx="2.5" ry="2.5" style="stroke:#181818;stroke-width:0.5;" width="155" x="383" y="706.4922"/><text fill="#000000" font-family="sans-serif" font-size="14" lengthAdjust="spacing" textLength="141" x="390" y="726.4873">calculateReachColor</text><rect fill="#FFFFFF" height="84.3984" style="stroke:#181818;stroke-width:1.0;" width="10" x="176.5" y="155.5625"/><rect fill="#FFFFFF" height="375.2656" style="stroke:#181818;stroke-width:1.0;" width="10" x="304" y="300.2266"/><rect fill="#FFFFFF" height="217.7969" style="stroke:#181818;stroke-width:1.0;" width="10" x="455.5" y="353.4922"/><rect fill="#EEEEEE" height="3" style="stroke:#EEEEEE;stroke-width:1.0;" width="672" x="0" y="111.8633"/><line style="stroke:#000000;stroke-width:1.0;" x1="0" x2="672" y1="111.8633" y2="111.8633"/><line style="stroke:#000000;stroke-width:1.0;" x1="0" x2="672" y1="114.8633" y2="114.8633"/><rect fill="#EEEEEE" height="23.1328" style="stroke:#000000;stroke-width:2.0;" width="349" x="161.5" y="101.2969"/><text fill="#000000" font-family="sans-serif" font-size="13" font-weight="bold" lengthAdjust="spacing" textLength="335" x="167.5" y="117.3638">Determine whether to terminate, Win or Lose</text><polygon fill="#181818" points="164.5,151.5625,174.5,155.5625,164.5,159.5625,168.5,155.5625" style="stroke:#181818;stroke-width:1.0;"/><line style="stroke:#181818;stroke-width:1.0;" x1="53.5" x2="170.5" y1="155.5625" y2="155.5625"/><text fill="#000000" font-family="sans-serif" font-size="13" lengthAdjust="spacing" textLength="35" x="60.5" y="150.4966">State</text><path d="M20,170.5625 L84,170.5625 L84,177.6953 L74,187.6953 L20,187.6953 L20,170.5625 " fill="#EEEEEE" style="stroke:#000000;stroke-width:1.5;"/><rect fill="none" height="77.3984" style="stroke:#000000;stroke-width:1.5;" width="225" x="20" y="170.5625"/><text fill="#000000" font-family="sans-serif" font-size="13" font-weight="bold" lengthAdjust="spacing" textLength="19" x="35" y="183.6294">alt</text><text fill="#000000" font-family="sans-serif" font-size="11" font-weight="bold" lengthAdjust="spacing" textLength="65" x="99" y="182.7729">[PASS x 2]</text><polygon fill="#181818" points="64.5,204.8281,54.5,208.8281,64.5,212.8281,60.5,208.8281" style="stroke:#181818;stroke-width:1.0;"/><line style="stroke:#181818;stroke-width:1.0;" x1="58.5" x2="175.5" y1="208.8281" y2="208.8281"/><text fill="#000000" font-family="sans-serif" font-size="13" lengthAdjust="spacing" textLength="74" x="70.5" y="203.7622">termination</text><line style="stroke:#000000;stroke-width:1.0;stroke-dasharray:2.0,2.0;" x1="20" x2="245" y1="217.8281" y2="217.8281"/><polygon fill="#181818" points="64.5,235.9609,54.5,239.9609,64.5,243.9609,60.5,239.9609" style="stroke:#181818;stroke-width:1.0;"/><line style="stroke:#181818;stroke-width:1.0;" x1="58.5" x2="180.5" y1="239.9609" y2="239.9609"/><text fill="#000000" font-family="sans-serif" font-size="13" lengthAdjust="spacing" textLength="99" x="70.5" y="234.895">not termination</text><path d="M10,261.9609 L74,261.9609 L74,269.0938 L64,279.0938 L10,279.0938 L10,261.9609 " fill="#EEEEEE" style="stroke:#000000;stroke-width:1.5;"/><rect fill="none" height="428.5313" style="stroke:#000000;stroke-width:1.5;" width="652" x="10" y="261.9609"/><text fill="#000000" font-family="sans-serif" font-size="13" font-weight="bold" lengthAdjust="spacing" textLength="19" x="25" y="275.0278">alt</text><text fill="#000000" font-family="sans-serif" font-size="11" font-weight="bold" lengthAdjust="spacing" textLength="84" x="89" y="274.1714">[termination]</text><polygon fill="#181818" points="292,296.2266,302,300.2266,292,304.2266,296,300.2266" style="stroke:#181818;stroke-width:1.0;"/><line style="stroke:#181818;stroke-width:1.0;" x1="53.5" x2="298" y1="300.2266" y2="300.2266"/><text fill="#000000" font-family="sans-serif" font-size="13" lengthAdjust="spacing" textLength="35" x="60.5" y="295.1606">State</text><path d="M235,315.2266 L305,315.2266 L305,322.3594 L295,332.3594 L235,332.3594 L235,315.2266 " fill="#EEEEEE" style="stroke:#000000;stroke-width:1.5;"/><rect fill="none" height="264.0625" style="stroke:#000000;stroke-width:1.5;" width="417" x="235" y="315.2266"/><text fill="#000000" font-family="sans-serif" font-size="13" font-weight="bold" lengthAdjust="spacing" textLength="25" x="250" y="328.2935">par</text><text fill="#000000" font-family="sans-serif" font-size="11" font-weight="bold" lengthAdjust="spacing" textLength="184" x="320" y="327.437">[board, Color (White, Black)]</text><polygon fill="#181818" points="443.5,349.4922,453.5,353.4922,443.5,357.4922,447.5,353.4922" style="stroke:#181818;stroke-width:1.0;"/><line style="stroke:#181818;stroke-width:1.0;" x1="314" x2="449.5" y1="353.4922" y2="353.4922"/><text fill="#000000" font-family="sans-serif" font-size="13" lengthAdjust="spacing" textLength="79" x="321" y="348.4263">Board, Color</text><path d="M363,368.4922 L440,368.4922 L440,375.625 L430,385.625 L363,385.625 L363,368.4922 " fill="#EEEEEE" style="stroke:#000000;stroke-width:1.5;"/><rect fill="none" height="174.6641" style="stroke:#000000;stroke-width:1.5;" width="279" x="363" y="368.4922"/><text fill="#000000" font-family="sans-serif" font-size="13" font-weight="bold" lengthAdjust="spacing" textLength="32" x="378" y="381.5591">loop</text><text fill="#000000" font-family="sans-serif" font-size="11" font-weight="bold" lengthAdjust="spacing" textLength="146" x="455" y="380.7026">[Traverse board (BFS)]</text><line style="stroke:#181818;stroke-width:1.0;" x1="465.5" x2="507.5" y1="406.7578" y2="406.7578"/><line style="stroke:#181818;stroke-width:1.0;" x1="507.5" x2="507.5" y1="406.7578" y2="419.7578"/><line style="stroke:#181818;stroke-width:1.0;" x1="466.5" x2="507.5" y1="419.7578" y2="419.7578"/><polygon fill="#181818" points="476.5,415.7578,466.5,419.7578,476.5,423.7578,472.5,419.7578" style="stroke:#181818;stroke-width:1.0;"/><text fill="#000000" font-family="sans-serif" font-size="13" lengthAdjust="spacing" textLength="117" x="472.5" y="401.6919">&#20174;&#38431;&#21015;&#20013;&#21462;&#20986;&#19968;&#20010;&#28857;</text><path d="M373,434.7578 L437,434.7578 L437,441.8906 L427,451.8906 L373,451.8906 L373,434.7578 " fill="#EEEEEE" style="stroke:#000000;stroke-width:1.5;"/><rect fill="none" height="101.3984" style="stroke:#000000;stroke-width:1.5;" width="259" x="373" y="434.7578"/><text fill="#000000" font-family="sans-serif" font-size="13" font-weight="bold" lengthAdjust="spacing" textLength="19" x="388" y="447.8247">alt</text><text fill="#000000" font-family="sans-serif" font-size="11" font-weight="bold" lengthAdjust="spacing" textLength="175" x="452" y="446.9683">[&#26816;&#26597;&#20854;&#30456;&#37051;&#30340;&#28857;&#65292;&#33509;&#26410;&#35775;&#38382;&#19988;&#20026;&#31354;]</text><line style="stroke:#181818;stroke-width:1.0;" x1="465.5" x2="507.5" y1="473.0234" y2="473.0234"/><line style="stroke:#181818;stroke-width:1.0;" x1="507.5" x2="507.5" y1="473.0234" y2="486.0234"/><line style="stroke:#181818;stroke-width:1.0;" x1="466.5" x2="507.5" y1="486.0234" y2="486.0234"/><polygon fill="#181818" points="476.5,482.0234,466.5,486.0234,476.5,490.0234,472.5,486.0234" style="stroke:#181818;stroke-width:1.0;"/><text fill="#000000" font-family="sans-serif" font-size="13" lengthAdjust="spacing" textLength="137" x="472.5" y="467.9575">`reward of Color` + 1</text><line style="stroke:#181818;stroke-width:1.0;" x1="465.5" x2="507.5" y1="515.1563" y2="515.1563"/><line style="stroke:#181818;stroke-width:1.0;" x1="507.5" x2="507.5" y1="515.1563" y2="528.1563"/><line style="stroke:#181818;stroke-width:1.0;" x1="466.5" x2="507.5" y1="528.1563" y2="528.1563"/><polygon fill="#181818" points="476.5,524.1563,466.5,528.1563,476.5,532.1563,472.5,528.1563" style="stroke:#181818;stroke-width:1.0;"/><text fill="#000000" font-family="sans-serif" font-size="13" lengthAdjust="spacing" textLength="143" x="472.5" y="510.0903">&#26631;&#35760;&#20026;&#24050;&#35775;&#38382;&#65292;&#21152;&#20837;&#38431;&#21015;</text><polygon fill="#181818" points="325,567.2891,315,571.2891,325,575.2891,321,571.2891" style="stroke:#181818;stroke-width:1.0;"/><line style="stroke:#181818;stroke-width:1.0;" x1="319" x2="459.5" y1="571.2891" y2="571.2891"/><text fill="#000000" font-family="sans-serif" font-size="13" lengthAdjust="spacing" textLength="96" x="331" y="566.2231">reward of Color</text><path d="M20,593.2891 L84,593.2891 L84,600.4219 L74,610.4219 L20,610.4219 L20,593.2891 " fill="#EEEEEE" style="stroke:#000000;stroke-width:1.5;"/><rect fill="none" height="90.2031" style="stroke:#000000;stroke-width:1.5;" width="363" x="20" y="593.2891"/><text fill="#000000" font-family="sans-serif" font-size="13" font-weight="bold" lengthAdjust="spacing" textLength="19" x="35" y="606.356">alt</text><text fill="#000000" font-family="sans-serif" font-size="11" font-weight="bold" lengthAdjust="spacing" textLength="180" x="99" y="605.4995">[(black - white - komi) &gt;= 0]</text><polygon fill="#181818" points="64.5,627.5547,54.5,631.5547,64.5,635.5547,60.5,631.5547" style="stroke:#181818;stroke-width:1.0;"/><line style="stroke:#181818;stroke-width:1.0;" x1="58.5" x2="303" y1="631.5547" y2="631.5547"/><text fill="#000000" font-family="sans-serif" font-size="13" lengthAdjust="spacing" textLength="60" x="70.5" y="626.4888">Black Win</text><line style="stroke:#000000;stroke-width:1.0;stroke-dasharray:2.0,2.0;" x1="20" x2="383" y1="640.5547" y2="640.5547"/><text fill="#000000" font-family="sans-serif" font-size="11" font-weight="bold" lengthAdjust="spacing" textLength="171" x="25" y="650.7651">[(black - white - komi) &lt; 0]</text><polygon fill="#181818" points="64.5,671.4922,54.5,675.4922,64.5,679.4922,60.5,675.4922" style="stroke:#181818;stroke-width:1.0;"/><line style="stroke:#181818;stroke-width:1.0;" x1="58.5" x2="308" y1="675.4922" y2="675.4922"/><text fill="#000000" font-family="sans-serif" font-size="13" lengthAdjust="spacing" textLength="61" x="70.5" y="670.4263">White Win</text></g></svg>