<?xml version="1.0" encoding="us-ascii" standalone="no"?><svg xmlns="http://www.w3.org/2000/svg" xmlns:xlink="http://www.w3.org/1999/xlink" contentStyleType="text/css" height="744px" preserveAspectRatio="none" style="width:628px;height:744px;background:#FFFFFF;" version="1.1" viewBox="0 0 628 744" width="628px" zoomAndPan="magnify"><defs/><g><rect fill="#FFFFFF" height="498.2734" style="stroke:#181818;stroke-width:1.0;" width="10" x="241.5" y="155.5625"/><rect fill="none" height="476.2734" style="stroke:#000000;stroke-width:1.5;" width="601.5" x="10" y="170.5625"/><rect fill="none" height="236.7344" style="stroke:#000000;stroke-width:1.5;" width="434.5" x="167" y="313.7031"/><rect fill="none" height="121.3359" style="stroke:#000000;stroke-width:1.5;" width="414.5" x="177" y="422.1016"/><rect fill="none" height="90.2031" style="stroke:#000000;stroke-width:1.5;" width="394.5" x="187" y="446.2344"/><rect fill="none" height="46.2656" style="stroke:#000000;stroke-width:1.5;" width="286" x="20" y="564.4375"/><line style="stroke:#181818;stroke-width:0.5;stroke-dasharray:5.0,5.0;" x1="53" x2="53" y1="81.2969" y2="663.8359"/><line style="stroke:#181818;stroke-width:0.5;stroke-dasharray:5.0,5.0;" x1="246" x2="246" y1="81.2969" y2="663.8359"/><line style="stroke:#181818;stroke-width:0.5;stroke-dasharray:5.0,5.0;" x1="412.5" x2="412.5" y1="81.2969" y2="663.8359"/><line style="stroke:#181818;stroke-width:0.5;stroke-dasharray:5.0,5.0;" x1="522.5" x2="522.5" y1="81.2969" y2="663.8359"/><text fill="#000000" font-family="sans-serif" font-size="14" lengthAdjust="spacing" textLength="41" x="30" y="77.9951">Player</text><ellipse cx="53.5" cy="13.5" fill="#E2E2F0" rx="8" ry="8" style="stroke:#181818;stroke-width:0.5;"/><path d="M53.5,21.5 L53.5,48.5 M40.5,29.5 L66.5,29.5 M53.5,48.5 L40.5,63.5 M53.5,48.5 L66.5,63.5 " fill="none" style="stroke:#181818;stroke-width:0.5;"/><text fill="#000000" font-family="sans-serif" font-size="14" lengthAdjust="spacing" textLength="41" x="30" y="675.8311">Player</text><ellipse cx="53.5" cy="687.6328" fill="#E2E2F0" rx="8" ry="8" style="stroke:#181818;stroke-width:0.5;"/><path d="M53.5,695.6328 L53.5,722.6328 M40.5,703.6328 L66.5,703.6328 M53.5,722.6328 L40.5,737.6328 M53.5,722.6328 L66.5,737.6328 " fill="none" style="stroke:#181818;stroke-width:0.5;"/><rect fill="#E2E2F0" height="30.2969" rx="2.5" ry="2.5" style="stroke:#181818;stroke-width:0.5;" width="99" x="197" y="50"/><text fill="#000000" font-family="sans-serif" font-size="14" lengthAdjust="spacing" textLength="85" x="204" y="69.9951">updateState</text><rect fill="#E2E2F0" height="30.2969" rx="2.5" ry="2.5" style="stroke:#181818;stroke-width:0.5;" width="99" x="197" y="662.8359"/><text fill="#000000" font-family="sans-serif" font-size="14" lengthAdjust="spacing" textLength="85" x="204" y="682.8311">updateState</text><rect fill="#E2E2F0" height="30.2969" rx="2.5" ry="2.5" style="stroke:#181818;stroke-width:0.5;" width="104" x="360.5" y="50"/><text fill="#000000" font-family="sans-serif" font-size="14" lengthAdjust="spacing" textLength="90" x="367.5" y="69.9951">removeBlock</text><rect fill="#E2E2F0" height="30.2969" rx="2.5" ry="2.5" style="stroke:#181818;stroke-width:0.5;" width="104" x="360.5" y="662.8359"/><text fill="#000000" font-family="sans-serif" font-size="14" lengthAdjust="spacing" textLength="90" x="367.5" y="682.8311">removeBlock</text><rect fill="#E2E2F0" height="30.2969" rx="2.5" ry="2.5" style="stroke:#181818;stroke-width:0.5;" width="97" x="474.5" y="50"/><text fill="#000000" font-family="sans-serif" font-size="14" lengthAdjust="spacing" textLength="83" x="481.5" y="69.9951">mergeBlock</text><rect fill="#E2E2F0" height="30.2969" rx="2.5" ry="2.5" style="stroke:#181818;stroke-width:0.5;" width="97" x="474.5" y="662.8359"/><text fill="#000000" font-family="sans-serif" font-size="14" lengthAdjust="spacing" textLength="83" x="481.5" y="682.8311">mergeBlock</text><rect fill="#FFFFFF" height="498.2734" style="stroke:#181818;stroke-width:1.0;" width="10" x="241.5" y="155.5625"/><rect fill="#EEEEEE" height="3" style="stroke:#EEEEEE;stroke-width:1.0;" width="621.5" x="0" y="111.8633"/><line style="stroke:#000000;stroke-width:1.0;" x1="0" x2="621.5" y1="111.8633" y2="111.8633"/><line style="stroke:#000000;stroke-width:1.0;" x1="0" x2="621.5" y1="114.8633" y2="114.8633"/><rect fill="#EEEEEE" height="23.1328" style="stroke:#000000;stroke-width:2.0;" width="112" x="254.75" y="101.2969"/><text fill="#000000" font-family="sans-serif" font-size="13" font-weight="bold" lengthAdjust="spacing" textLength="98" x="260.75" y="117.3638">Update State</text><polygon fill="#181818" points="229.5,151.5625,239.5,155.5625,229.5,159.5625,233.5,155.5625" style="stroke:#181818;stroke-width:1.0;"/><line style="stroke:#181818;stroke-width:1.0;" x1="53.5" x2="235.5" y1="155.5625" y2="155.5625"/><text fill="#000000" font-family="sans-serif" font-size="13" lengthAdjust="spacing" textLength="169" x="60.5" y="150.4966">Perform Action, Last State</text><path d="M10,170.5625 L74,170.5625 L74,177.6953 L64,187.6953 L10,187.6953 L10,170.5625 " fill="#EEEEEE" style="stroke:#000000;stroke-width:1.5;"/><rect fill="none" height="476.2734" style="stroke:#000000;stroke-width:1.5;" width="601.5" x="10" y="170.5625"/><text fill="#000000" font-family="sans-serif" font-size="13" font-weight="bold" lengthAdjust="spacing" textLength="19" x="25" y="183.6294">alt</text><text fill="#000000" font-family="sans-serif" font-size="11" font-weight="bold" lengthAdjust="spacing" textLength="101" x="89" y="182.7729">[action is PASS]</text><polygon fill="#181818" points="64.5,204.8281,54.5,208.8281,64.5,212.8281,60.5,208.8281" style="stroke:#181818;stroke-width:1.0;"/><line style="stroke:#181818;stroke-width:1.0;" x1="58.5" x2="240.5" y1="208.8281" y2="208.8281"/><text fill="#000000" font-family="sans-serif" font-size="13" lengthAdjust="spacing" textLength="30" x="70.5" y="203.7622">legal</text><line style="stroke:#000000;stroke-width:1.0;stroke-dasharray:2.0,2.0;" x1="10" x2="611.5" y1="217.8281" y2="217.8281"/><text fill="#000000" font-family="sans-serif" font-size="11" font-weight="bold" lengthAdjust="spacing" textLength="93" x="15" y="228.0386">[The &#33853;&#23376;&#28857;&#38750;&#31354;]</text><polygon fill="#181818" points="64.5,248.7656,54.5,252.7656,64.5,256.7656,60.5,252.7656" style="stroke:#181818;stroke-width:1.0;"/><line style="stroke:#181818;stroke-width:1.0;" x1="58.5" x2="240.5" y1="252.7656" y2="252.7656"/><text fill="#000000" font-family="sans-serif" font-size="13" lengthAdjust="spacing" textLength="55" x="70.5" y="247.6997">not legal</text><line style="stroke:#000000;stroke-width:1.0;stroke-dasharray:2.0,2.0;" x1="10" x2="611.5" y1="261.7656" y2="261.7656"/><text fill="#000000" font-family="sans-serif" font-size="11" font-weight="bold" lengthAdjust="spacing" textLength="119" x="15" y="271.9761">[action is suicide:]</text><polygon fill="#181818" points="64.5,292.7031,54.5,296.7031,64.5,300.7031,60.5,296.7031" style="stroke:#181818;stroke-width:1.0;"/><line style="stroke:#181818;stroke-width:1.0;" x1="58.5" x2="240.5" y1="296.7031" y2="296.7031"/><text fill="#000000" font-family="sans-serif" font-size="13" lengthAdjust="spacing" textLength="55" x="70.5" y="291.6372">not legal</text><line style="stroke:#000000;stroke-width:1.0;stroke-dasharray:2.0,2.0;" x1="10" x2="611.5" y1="305.7031" y2="305.7031"/><path d="M167,313.7031 L310,313.7031 L310,320.8359 L300,330.8359 L167,330.8359 L167,313.7031 " fill="#EEEEEE" style="stroke:#000000;stroke-width:1.5;"/><rect fill="none" height="236.7344" style="stroke:#000000;stroke-width:1.5;" width="434.5" x="167" y="313.7031"/><text fill="#000000" font-family="sans-serif" font-size="13" font-weight="bold" lengthAdjust="spacing" textLength="98" x="182" y="326.77">Update State</text><line style="stroke:#181818;stroke-width:1.0;" x1="251.5" x2="293.5" y1="351.9688" y2="351.9688"/><line style="stroke:#181818;stroke-width:1.0;" x1="293.5" x2="293.5" y1="351.9688" y2="364.9688"/><line style="stroke:#181818;stroke-width:1.0;" x1="252.5" x2="293.5" y1="364.9688" y2="364.9688"/><polygon fill="#181818" points="262.5,360.9688,252.5,364.9688,262.5,368.9688,258.5,364.9688" style="stroke:#181818;stroke-width:1.0;"/><text fill="#000000" font-family="sans-serif" font-size="13" lengthAdjust="spacing" textLength="37" x="258.5" y="346.9028">&#33853;&#23376; z</text><line style="stroke:#181818;stroke-width:1.0;" x1="251.5" x2="293.5" y1="394.1016" y2="394.1016"/><line style="stroke:#181818;stroke-width:1.0;" x1="293.5" x2="293.5" y1="394.1016" y2="407.1016"/><line style="stroke:#181818;stroke-width:1.0;" x1="252.5" x2="293.5" y1="407.1016" y2="407.1016"/><polygon fill="#181818" points="262.5,403.1016,252.5,407.1016,262.5,411.1016,258.5,407.1016" style="stroke:#181818;stroke-width:1.0;"/><text fill="#000000" font-family="sans-serif" font-size="13" lengthAdjust="spacing" textLength="93" x="258.5" y="389.0356">&#35760;&#24405; z &#26377;&#22810;&#23569;&#27668;</text><path d="M177,422.1016 L254,422.1016 L254,429.2344 L244,439.2344 L177,439.2344 L177,422.1016 " fill="#EEEEEE" style="stroke:#000000;stroke-width:1.5;"/><rect fill="none" height="121.3359" style="stroke:#000000;stroke-width:1.5;" width="414.5" x="177" y="422.1016"/><text fill="#000000" font-family="sans-serif" font-size="13" font-weight="bold" lengthAdjust="spacing" textLength="32" x="192" y="435.1685">loop</text><text fill="#000000" font-family="sans-serif" font-size="11" font-weight="bold" lengthAdjust="spacing" textLength="124" x="269" y="434.312">[z neighbor's color]</text><path d="M187,446.2344 L251,446.2344 L251,453.3672 L241,463.3672 L187,463.3672 L187,446.2344 " fill="#EEEEEE" style="stroke:#000000;stroke-width:1.5;"/><rect fill="none" height="90.2031" style="stroke:#000000;stroke-width:1.5;" width="394.5" x="187" y="446.2344"/><text fill="#000000" font-family="sans-serif" font-size="13" font-weight="bold" lengthAdjust="spacing" textLength="19" x="202" y="459.3013">alt</text><text fill="#000000" font-family="sans-serif" font-size="11" font-weight="bold" lengthAdjust="spacing" textLength="249" x="266" y="458.4448">[is opponent color of z and have no qi]</text><polygon fill="#181818" points="400.5,480.5,410.5,484.5,400.5,488.5,404.5,484.5" style="stroke:#181818;stroke-width:1.0;"/><line style="stroke:#181818;stroke-width:1.0;" x1="251.5" x2="406.5" y1="484.5" y2="484.5"/><text fill="#000000" font-family="sans-serif" font-size="13" lengthAdjust="spacing" textLength="137" x="258.5" y="479.4341">Clear the color blocks</text><line style="stroke:#000000;stroke-width:1.0;stroke-dasharray:2.0,2.0;" x1="187" x2="581.5" y1="493.5" y2="493.5"/><text fill="#000000" font-family="sans-serif" font-size="11" font-weight="bold" lengthAdjust="spacing" textLength="135" x="192" y="503.7104">[equal the color of z]</text><polygon fill="#181818" points="511,524.4375,521,528.4375,511,532.4375,515,528.4375" style="stroke:#181818;stroke-width:1.0;"/><line style="stroke:#181818;stroke-width:1.0;" x1="251.5" x2="517" y1="528.4375" y2="528.4375"/><text fill="#000000" font-family="sans-serif" font-size="13" lengthAdjust="spacing" textLength="144" x="258.5" y="523.3716">Merge the color blocks</text><path d="M20,564.4375 L84,564.4375 L84,571.5703 L74,581.5703 L20,581.5703 L20,564.4375 " fill="#EEEEEE" style="stroke:#000000;stroke-width:1.5;"/><rect fill="none" height="46.2656" style="stroke:#000000;stroke-width:1.5;" width="286" x="20" y="564.4375"/><text fill="#000000" font-family="sans-serif" font-size="13" font-weight="bold" lengthAdjust="spacing" textLength="19" x="35" y="577.5044">alt</text><text fill="#000000" font-family="sans-serif" font-size="11" font-weight="bold" lengthAdjust="spacing" textLength="120" x="99" y="576.6479">[&#23384;&#22312;&#21382;&#21490;&#20840;&#23616;&#21516;&#24418;&#26827;&#38754;]</text><polygon fill="#181818" points="64.5,598.7031,54.5,602.7031,64.5,606.7031,60.5,602.7031" style="stroke:#181818;stroke-width:1.0;"/><line style="stroke:#181818;stroke-width:1.0;" x1="58.5" x2="240.5" y1="602.7031" y2="602.7031"/><text fill="#000000" font-family="sans-serif" font-size="13" lengthAdjust="spacing" textLength="55" x="70.5" y="597.6372">not legal</text><polygon fill="#181818" points="64.5,634.8359,54.5,638.8359,64.5,642.8359,60.5,638.8359" style="stroke:#181818;stroke-width:1.0;"/><line style="stroke:#181818;stroke-width:1.0;" x1="58.5" x2="240.5" y1="638.8359" y2="638.8359"/><text fill="#000000" font-family="sans-serif" font-size="13" lengthAdjust="spacing" textLength="30" x="70.5" y="633.77">legal</text></g></svg>